<svg aria-hidden="true" style="position:absolute;width:0;height:0;overflow:hidden" xmlns="http://www.w3.org/2000/svg">
  <defs>
<symbol id="icon-charm_menu" viewBox="0 0 47 32">
<path stroke-linejoin="round" stroke-linecap="round" stroke-miterlimit="4" stroke-width="4.3636" d="M1.961 29.153h42.964M1.961 15.615h42.964M1.961 2.077h42.964"></path>
</symbol>
    <symbol id="icon-antenna" viewBox="0 0 32 32">
      <path fill="#2e2f42" style="fill:var(--color1, #2e2f42)" d="m30.773 22.098-8.443-8.505.937-4.615c.242.094.499.144.758.146h.006a2.159 2.159 0 1 0-2.008-1.435l-4.96.605L8.972.161a.534.534 0 0 0-.377-.16.532.532 0 0 0-.373.155L6.709 1.66a.534.534 0 0 0 0 .754l.814.826a14.943 14.943 0 0 0 2.519 17.663.513.513 0 0 0 .146.098c-.034.18-.051.364-.052.547v6.187h-6.4a2.67 2.67 0 0 0-2.667 2.667v1.067c0 .295.239.533.533.533h24.533a.533.533 0 0 0 .533-.533v-1.067a2.67 2.67 0 0 0-2.667-2.667h-6.4v-2.742a15.09 15.09 0 0 0 3.049.32 14.854 14.854 0 0 0 7.04-1.783l.818.823a.534.534 0 0 0 .377.16.532.532 0 0 0 .373-.155l1.513-1.504a.534.534 0 0 0 0-.754zM23.28 6.233a1.067 1.067 0 1 1 .753 1.822h-.003a1.067 1.067 0 0 1-.747-1.823h-.002zm-1.256 3.505-.598 2.946-1.175-1.182 1.774-1.763zm-.605-.902-1.92 1.909-1.485-1.493 3.405-.415zM24.004 28.8a1.6 1.6 0 0 1 1.6 1.6v.533H2.137V30.4a1.6 1.6 0 0 1 1.6-1.6h20.267zm-7.467-2.133v1.067h-5.333v-1.067h5.333zM11.204 25.6v-4.053c0-1.294 1.196-2.347 2.667-2.347s2.667 1.053 2.667 2.347V25.6h-5.333zm6.4-1.696v-2.357c0-1.882-1.675-3.413-3.733-3.413a3.8 3.8 0 0 0-3.281 1.786A13.87 13.87 0 0 1 8.311 4.033l18.602 18.708a13.818 13.818 0 0 1-9.309 1.163zm11.289-.684L7.836 2.039l.755-.752 7.935 7.98c.004 0 .006.007.01.01l13.115 13.191-.757.752z"/>
      <path fill="#4d5ae5" style="fill:var(--color2, #4d5ae5)" d="M13.876 20.267h-.005a1.6 1.6 0 1 0-.004 3.2h.005a1.6 1.6 0 1 0 .004-3.2zm.373 1.978a.534.534 0 0 1-.752-.756.534.534 0 0 1 .373-.155.534.534 0 0 1 .374.911h.005z"/>
    </symbol>
    <symbol id="icon-astronaut" viewBox="0 0 32 32">
      <path fill="#4d5ae5" style="fill:var(--color2, #4d5ae5)" d="M31.974 4.524a.534.534 0 0 0-.43-.363l-1.91-.278-.855-1.731c-.179-.365-.777-.365-.956 0l-.855 1.731-1.91.278a.535.535 0 0 0-.296.91l1.383 1.348-.326 1.903c-.034.2.048.402.212.522a.53.53 0 0 0 .562.04l1.709-.899 1.709.899a.536.536 0 0 0 .775-.563l-.326-1.903 1.383-1.348a.536.536 0 0 0 .135-.547zm-2.463 1.327a.534.534 0 0 0-.153.472l.191 1.114-1-.526a.533.533 0 0 0-.498 0l-1.001.526.191-1.114a.534.534 0 0 0-.153-.472l-.81-.789 1.119-.163a.532.532 0 0 0 .402-.292l.5-1.013.5 1.013a.535.535 0 0 0 .402.292l1.119.163-.809.789zM26.133 20.522h-1.067v1.067h1.067v-1.067zM26.133 22.656h-1.067v1.067h1.067v-1.067zM27.2 21.589h-1.067v1.067H27.2v-1.067zM25.067 21.589H24v1.067h1.067v-1.067zM22.4 26.389h-1.067v1.067H22.4v-1.067zM22.4 28.522h-1.067v1.067H22.4v-1.067zM23.467 27.456H22.4v1.067h1.067v-1.067zM21.333 27.456h-1.067v1.067h1.067v-1.067zM16 24.256h-1.067v1.067H16v-1.067zM16 26.389h-1.067v1.067H16v-1.067zM17.067 25.322H16v1.067h1.067v-1.067zM14.933 25.322h-1.067v1.067h1.067v-1.067zM5.867 6.122H4.8v1.067h1.067V6.122zM5.867 8.255H4.8v1.067h1.067V8.255z"/>
      <path fill="#4d5ae5" style="fill:var(--color2, #4d5ae5)" d="M6.933 7.189H5.866v1.067h1.067V7.189zM4.8 7.189H3.733v1.067H4.8V7.189z"/>
      <path fill="#2e2f42" style="fill:var(--color1, #2e2f42)" d="M24.715 14.159a1.775 1.775 0 0 0-1.188-.705 1.778 1.778 0 0 0-1.34.352l-1.252.96-1.898 1.417-1.358-.541c2.421-1.086 4.114-3.508 4.114-6.32 0-3.823-3.123-6.933-6.961-6.933s-6.961 3.11-6.961 6.933a6.86 6.86 0 0 0 1.12 3.758l-2.764-.024h-.005c-.009 0-.015.004-.023.005a.515.515 0 0 0-.155.031l-.038.013c-.006.003-.013.003-.019.006l-3.233 1.596-.001.001-1.893.911a.397.397 0 0 0-.063.035 1.779 1.779 0 0 0-.598 2.295c.22.429.595.745 1.056.889a1.776 1.776 0 0 0 1.378-.128l1.388-.738 2.264-1.169 1.357-.008L2.2 22.211l-.002.001-1.339 1.333c-.316.315-.49.732-.49 1.178s.174.863.49 1.179c.325.323.752.485 1.179.485s.854-.162 1.18-.485l1.314-1.309 1.741-1.3.901.897-1.762 1.754-.002.001-1.339 1.333c-.316.315-.49.732-.49 1.178s.174.863.49 1.179c.325.323.753.485 1.18.485s.855-.162 1.18-.485l3.482-3.467.001-.002 1.01-1-.004-.004c.006-.006.015-.009.022-.015l5.166-5.658 3.471.494a.52.52 0 0 0 .262-.033c.018-.006.033-.015.05-.023.019-.01.039-.015.058-.027l3.213-2.133c.012-.008.018-.021.029-.029.013-.01.029-.014.041-.026l1.271-1.191c.662-.62.753-1.635.212-2.362zM2.13 17.77a.714.714 0 0 1-.558.052.717.717 0 0 1-.213-1.26l1.314-.632.449 1.313-.992.527zm3.498-1.828-1.548.8-.439-1.283 2.027-1.001-.04 1.484zm15.099-6.62a5.79 5.79 0 0 1-.599 2.559l-4.181-1.899a1.863 1.863 0 0 0-.788-1.388l1.464-4.86c2.378.756 4.105 2.974 4.105 5.588zm-11.789 0c0-3.235 2.644-5.867 5.894-5.867.253 0 .5.021.745.052l-1.432 4.754c-.019-.001-.037-.006-.057-.006-1.033 0-1.873.837-1.873 1.867s.84 1.867 1.873 1.867c.694 0 1.294-.383 1.618-.945l3.862 1.755a5.894 5.894 0 0 1-4.737 2.39c-3.25 0-5.894-2.632-5.894-5.867zm5.956.8c0 .441-.362.8-.806.8s-.806-.359-.806-.8c0-.441.362-.8.806-.8s.806.359.806.8zM2.465 25.146a.608.608 0 0 1-.854.001.592.592 0 0 1 0-.844l.962-.958.851.848-.959.955zm3.214 3.734a.608.608 0 0 1-.855.001.592.592 0 0 1 0-.844l.963-.959.852.848-.96.955zm3.481-3.469-.002.001-1.765 1.76-.852-.848 1.763-1.755.002-.001c.04-.04.065-.088.09-.135.007-.014.02-.026.026-.04.017-.041.019-.085.026-.129.003-.025.014-.047.014-.073 0-.036-.013-.07-.02-.106-.006-.032-.006-.065-.019-.095a.55.55 0 0 0-.091-.138c-.01-.012-.014-.027-.025-.038h-.001l-.001-.002-1.607-1.6c-.017-.017-.039-.024-.058-.038a.507.507 0 0 0-.087-.058.515.515 0 0 0-.093-.033.507.507 0 0 0-.103-.02.5.5 0 0 0-.095.005.53.53 0 0 0-.104.02.477.477 0 0 0-.094.045c-.02.011-.042.015-.061.029L4.23 23.486l-.901-.897 2.399-2.386 4.361 4.289-.928.919zm6.819-7.017c-.015-.002-.03.004-.045.003a.556.556 0 0 0-.3.075.492.492 0 0 0-.083.061c-.013.011-.028.017-.04.029l-4.698 5.146-4.328-4.257 2.833-2.818a.534.534 0 0 0-.379-.911v-.001l-2.219.013.028-1.607 3.104.027a6.947 6.947 0 0 0 4.981 2.101c.437 0 .864-.045 1.279-.123.04.032.079.065.13.085l2.41.96.152.758.178.885-3.003-.427zm4.041.178-.313-1.558 1.446-1.08.947 1.257-2.08 1.381zm3.754-2.831-.838.785-.931-1.236.831-.637a.735.735 0 0 1 .543-.143.718.718 0 0 1 .48.284.713.713 0 0 1-.085.947z"/>
      <path fill="#2e2f42" style="fill:var(--color1, #2e2f42)" d="m13.602 18.544-2.143-2.133a.534.534 0 0 0-.753 0l-2.142 2.133a.537.537 0 0 0 0 .756l2.142 2.133a.536.536 0 0 0 .753 0l2.143-2.133a.535.535 0 0 0 0-.756zm-2.519 1.759-1.387-1.381 1.387-1.381 1.387 1.381-1.387 1.381zM17.164 5.071l-.258 1.036c.071.018 1.738.452 1.738 2.149h1.067c0-2.017-1.666-2.965-2.547-3.185zM19.711 9.322h-1.067v1.067h1.067V9.322z"/>
    </symbol>
    <symbol id="icon-clock" viewBox="0 0 32 32">
      <path fill="#2e2f42" style="fill:var(--color1, #2e2f42)" d="M31.297 15.301C31.295 6.849 24.442-.002 15.989 0S.686 6.855.688 15.308a15.304 15.304 0 0 0 10.649 14.576.662.662 0 0 0 .529-.065.637.637 0 0 0 .283-.356l3.865-12.25a1.912 1.912 0 1 0-.84-3.635l-5.106-5.107a.637.637 0 0 0-.902.902l5.103 5.109a1.876 1.876 0 0 0 .536 2.309l-3.683 11.673C3.844 25.783.118 17.71 2.799 10.432S13.553-.572 20.831 2.109c7.278 2.681 11.004 10.754 8.323 18.032a14.042 14.042 0 0 1-7.462 7.973l-.398-1.874a.637.637 0 0 0-1.049-.344l-3.837 3.426a.637.637 0 0 0 .231 1.084l4.899 1.564a.638.638 0 0 0 .819-.74l-.391-1.839a15.255 15.255 0 0 0 9.329-14.089zm-15.305-.637a.638.638 0 1 1 0 1.277.638.638 0 0 1 0-1.277zm2.101 14.864 2.184-1.948.603 2.84-2.787-.892z"/>
      <path fill="#4d5ae5" style="fill:var(--color2, #4d5ae5)" d="M15.354 3.185V4.46a.638.638 0 1 0 1.276 0V3.185a.638.638 0 0 0-1.276 0zM3.876 14.664a.638.638 0 0 0 0 1.276h1.275a.638.638 0 1 0 0-1.276H3.876zM28.108 15.939a.638.638 0 1 0 0-1.276h-1.275a.638.638 0 0 0 0 1.276h1.275z"/>
    </symbol>   
    <symbol id="icon-diagramma" viewBox="0 0 32 32">
      <path fill="#4d5ae5" style="fill:var(--color2, #4d5ae5)" d="M14.925 14.965h1.066v4.798h-1.066v-4.797zM19.19 17.097h1.066v2.665H19.19v-2.665zM10.661 18.696h1.066v1.066h-1.066v-1.066zM7.463 18.163h1.066v1.599H7.463v-1.599z"/>
      <path fill="#2e2f42" style="fill:var(--color1, #2e2f42)" d="M1.599 28.291h25.587a1.6 1.6 0 0 0 1.599-1.599V24.56a1.6 1.6 0 0 0-1.599-1.599h-.533V9.668L29.681 6.8a1.608 1.608 0 1 0-.746-.763L26.654 8.2V6.97a1.6 1.6 0 0 0-1.599-1.599H3.733A1.6 1.6 0 0 0 2.134 6.97v15.992h-.533a1.6 1.6 0 0 0-1.599 1.599v2.132a1.6 1.6 0 0 0 1.599 1.599zM30.384 4.837a.533.533 0 1 1 0 1.067.533.533 0 0 1 0-1.067zM3.198 6.969c0-.294.239-.533.533-.533h21.322c.294 0 .533.239.533.533v2.239l-1.066 1.013V8.035a.533.533 0 0 0-.533-.533H4.797a.533.533 0 0 0-.533.533v13.326c0 .294.239.533.533.533h19.19a.533.533 0 0 0 .533-.533v-9.674l1.066-1.01v12.284H3.198V6.969zm4.798 6.93a1.598 1.598 0 1 0 1.107 2.749l1.853.93a.532.532 0 0 0 .636-.123l3.939-4.431 3.872 2.901a.533.533 0 0 0 .686-.039l3.365-3.188v8.131H5.33V8.569h18.124v2.66l-3.771 3.572-3.904-2.927a.533.533 0 0 0-.718.072l-3.993 4.493-1.493-.746c.011-.064.018-.129.02-.193a1.6 1.6 0 0 0-1.599-1.599zm.533 1.599a.533.533 0 1 1-1.067 0 .533.533 0 0 1 1.067 0zm3.198 8.529h5.331v.533a.533.533 0 0 1-.533.533h-4.264a.533.533 0 0 1-.533-.533v-.533zm-10.661.533c0-.294.239-.533.533-.533h9.062v.533a1.6 1.6 0 0 0 1.599 1.599h4.264a1.6 1.6 0 0 0 1.599-1.599v-.533h9.062c.294 0 .533.239.533.533v2.132a.533.533 0 0 1-.533.533H1.598a.533.533 0 0 1-.533-.533V24.56z"/>
    </symbol>     
    <symbol id="icon-facebook" viewBox="0 0 32 32">
      <path d="M21.329 5.313h2.921V.225C23.746.156 22.013 0 19.994 0c-4.212 0-7.097 2.649-7.097 7.519V12H8.249v5.688h4.648V32h5.699V17.689h4.46l.708-5.688h-5.169V8.082c.001-1.644.444-2.769 2.735-2.769z"/>
    </symbol>
    <symbol id="icon-instagram" viewBox="0 0 32 32">
      <path d="M31.969 9.408c-.075-1.7-.35-2.869-.744-3.882a7.803 7.803 0 0 0-1.85-2.838A7.867 7.867 0 0 0 26.543.844C25.524.45 24.361.175 22.661.1 20.948.019 20.404 0 16.06 0s-4.888.019-6.595.094c-1.7.075-2.869.35-3.882.744a7.803 7.803 0 0 0-2.838 1.85A7.867 7.867 0 0 0 .901 5.52C.507 6.539.232 7.702.157 9.402c-.081 1.713-.1 2.257-.1 6.601s.019 4.888.094 6.595c.075 1.7.35 2.869.744 3.882a7.895 7.895 0 0 0 1.85 2.838 7.867 7.867 0 0 0 2.832 1.844c1.019.394 2.182.669 3.882.744 1.706.075 2.25.094 6.595.094s4.888-.018 6.595-.094c1.7-.075 2.869-.35 3.882-.744a8.181 8.181 0 0 0 4.682-4.682c.394-1.019.669-2.182.744-3.882.075-1.707.094-2.251.094-6.595s-.006-4.888-.081-6.595zm-2.882 13.065c-.069 1.563-.331 2.407-.55 2.969a5.307 5.307 0 0 1-3.038 3.038c-.563.219-1.413.481-2.969.55-1.688.075-2.194.094-6.464.094s-4.782-.018-6.464-.094c-1.563-.069-2.407-.331-2.969-.55a4.926 4.926 0 0 1-1.838-1.194 4.974 4.974 0 0 1-1.194-1.838c-.219-.563-.481-1.413-.55-2.969-.075-1.688-.094-2.194-.094-6.464s.019-4.782.094-6.464c.069-1.563.331-2.407.55-2.969a4.868 4.868 0 0 1 1.2-1.838A4.974 4.974 0 0 1 6.639 3.55c.563-.219 1.413-.481 2.969-.55 1.688-.075 2.194-.094 6.464-.094 4.276 0 4.782.019 6.464.094 1.563.069 2.407.331 2.969.55a4.914 4.914 0 0 1 1.838 1.194 4.974 4.974 0 0 1 1.194 1.838c.219.563.481 1.413.55 2.969.075 1.688.094 2.194.094 6.464s-.019 4.77-.094 6.457z"/>
      <path d="M16.059 7.782c-4.538 0-8.22 3.682-8.22 8.22s3.682 8.22 8.22 8.22 8.22-3.682 8.22-8.22-3.682-8.22-8.22-8.22zm0 13.553a5.333 5.333 0 0 1 0-10.664 5.333 5.333 0 0 1 0 10.664zM26.524 7.457a1.919 1.919 0 1 1-3.838 0 1.919 1.919 0 0 1 3.838 0z"/>
    </symbol>
    <symbol id="icon-linkedin" viewBox="0 0 32 32">
      <path d="M31.992 32v-.001H32V20.263c0-5.741-1.236-10.164-7.948-10.164-3.227 0-5.392 1.771-6.276 3.449h-.093v-2.913h-6.364v21.364h6.627V21.42c0-2.785.528-5.479 3.977-5.479 3.399 0 3.449 3.179 3.449 5.657v10.401h6.62zM.528 10.636h6.635V32H.528V10.636zM3.843 0C1.722 0 0 1.721 0 3.843s1.721 3.879 3.843 3.879c2.121 0 3.843-1.757 3.843-3.879A3.846 3.846 0 0 0 3.843 0z"/>
    </symbol>
    <symbol id="icon-castomers1" viewBox="0 0 59 32">
      <path d="m21.714 4 4.004 3.815-7.433-.004v18.51h19.429v-7.077l4 3.811V4.001h-20zm15.824 14.796L26.184 7.979h11.354v10.817zm-3.525 4.817H21.36V11.164h.894V22.77h11.759v.843zm-10.13 6.136-.472-.97h-.389l.684 1.284v.748h.353v-.748l.684-1.284h-.388l-.472.97zm1.739-.969h.084l.767 2.031h-.368l-.164-.476h-.786l-.164.476h-.367l.765-2.031h.234zm-.373 1.278h.595l-.298-.862-.297.862zm2.455-.337-.044-.057c-.052-.069-.093-.135-.121-.2s-.043-.132-.043-.201c0-.106.022-.197.066-.273s.106-.135.186-.176a.593.593 0 0 1 .28-.063c.103 0 .192.021.266.063a.44.44 0 0 1 .103.707.963.963 0 0 1-.142.124l-.141.103.402.475a.826.826 0 0 0 .088-.379h.29c0 .099-.01.192-.029.28a.878.878 0 0 1-.149.335l.298.351h-.389l-.118-.139a.796.796 0 0 1-.208.114.938.938 0 0 1-.315.053c-.135 0-.252-.025-.35-.074s-.175-.117-.229-.204a.56.56 0 0 1-.08-.297c0-.083.017-.155.052-.218s.081-.122.141-.176c.055-.05.118-.1.188-.15zm.167.204-.042.031c-.049.04-.086.079-.11.116a.322.322 0 0 0-.057.181c0 .059.013.113.038.162s.064.087.113.116a.37.37 0 0 0 .183.042.514.514 0 0 0 .328-.116l-.452-.532zm.08-.371.125-.084c.059-.039.1-.077.126-.114s.038-.086.038-.142c0-.048-.019-.093-.056-.134s-.09-.061-.158-.061a.204.204 0 0 0-.194.121.284.284 0 0 0-.024.119c0 .042.011.085.032.13s.051.09.088.138l.023.029zm3.554.596h-.349c-.01.088-.032.163-.064.225s-.079.106-.141.138a.522.522 0 0 1-.241.047c-.082 0-.152-.016-.211-.049s-.107-.079-.145-.138c-.037-.059-.065-.131-.084-.213s-.026-.177-.026-.279v-.172c0-.108.01-.204.029-.287s.051-.156.091-.213c.04-.058.09-.101.149-.131s.129-.045.209-.045c.098 0 .177.017.237.05s.106.08.137.142a.628.628 0 0 1 .061.225h.349c-.014-.136-.052-.256-.114-.361s-.148-.187-.259-.247a.857.857 0 0 0-.41-.089c-.127 0-.242.022-.345.067s-.188.109-.261.194c-.073.084-.128.185-.167.303s-.057.25-.057.396v.169c0 .146.019.278.056.396s.093.219.165.303c.072.083.158.147.258.192s.213.067.339.067c.164 0 .303-.03.417-.089s.203-.141.266-.244a.82.82 0 0 0 .112-.356zm1.938-.299v-.112c0-.153-.02-.291-.061-.412s-.097-.226-.172-.311c-.074-.087-.163-.152-.266-.197s-.218-.068-.343-.068c-.125 0-.239.023-.342.068s-.191.11-.266.197c-.074.086-.132.189-.173.311s-.061.258-.061.412v.112c0 .154.02.291.061.413s.1.226.176.311a.767.767 0 0 0 .608.264c.126 0 .24-.022.343-.067s.192-.111.265-.197c.074-.086.132-.189.172-.311s.06-.259.06-.413zm-.351-.114v.114c0 .113-.011.214-.033.301s-.053.161-.095.222c-.042.059-.093.105-.153.135s-.13.045-.208.045c-.077 0-.146-.015-.206-.045s-.113-.076-.156-.135c-.043-.06-.075-.134-.098-.222s-.033-.188-.033-.301v-.114c0-.113.011-.213.033-.3s.054-.16.096-.219a.421.421 0 0 1 .361-.18c.077 0 .147.015.208.046.061.03.113.074.155.134s.075.132.096.219c.022.087.033.186.033.3z"/>
    </symbol>
    <symbol id="icon-castomers2" viewBox="0 0 59 32">
      <path d="M28.636 3.391h-.078c-.12-.007-.24-.01-.36-.013h-.26c-.227 0-.458.006-.688.017a.451.451 0 0 0-.052 0 16.148 16.148 0 0 0-6.009 1.533l-.247.119v12.652l.578-.196a22.494 22.494 0 0 1 1.607-.477 19.624 19.624 0 0 1 4.626-.615v1.662c-.207.002-.408.007-.609.017h-.048a18.54 18.54 0 0 0-3.559.546c-1.477.37-2.901.925-4.24 1.652V4.061a16.979 16.979 0 0 1 4.448-1.809 17.043 17.043 0 0 1 4.192-.541h.244c.292.007.577.02.844.041.705.049 1.404.161 2.089.333v1.636a12.928 12.928 0 0 0-2.024-.305l-.041-.004c-.141-.012-.282-.024-.414-.024zm2.88 1.673c.363.028.739.041 1.119.041a17.95 17.95 0 0 0 4.407-.565 18.14 18.14 0 0 0 4.238-1.654v15.938a17.068 17.068 0 0 1-4.449 1.809c-1.37.352-2.778.533-4.192.539a12.76 12.76 0 0 1-3.18-.375V4.756c.246.057.499.109.756.153.422.071.867.123 1.301.155zm8.111.123-.578.195c-.532.179-1.068.339-1.608.481a19.61 19.61 0 0 1-4.804.616c-.377 0-.724-.01-1.06-.032l-.461-.03v13.015l.396.035c.367.032.746.048 1.128.048a15.335 15.335 0 0 0 3.783-.49 15.84 15.84 0 0 0 2.956-1.062l.247-.119V5.188zM20.421 25.836a.856.856 0 0 0-.643-.26.953.953 0 0 0-.372.07.828.828 0 0 0-.475.481.957.957 0 0 0-.067.359v2.168a1.03 1.03 0 0 0 .085.445c.051.111.125.21.217.291a.752.752 0 0 0 .298.154c.105.03.214.045.324.045a.906.906 0 0 0 .828-.568.873.873 0 0 0 .069-.346v-.243h-.567v.193a.506.506 0 0 1-.033.193.35.35 0 0 1-.082.122.33.33 0 0 1-.119.062.367.367 0 0 1-.119.02.283.283 0 0 1-.266-.116.512.512 0 0 1-.075-.291v-2.021a.686.686 0 0 1 .069-.324.284.284 0 0 1 .277-.13c.049-.002.097.008.141.03s.082.053.112.092a.461.461 0 0 1 .094.291v.187h.561v-.221a1.022 1.022 0 0 0-.069-.379.893.893 0 0 0-.189-.305zM23.788 25.811a1.005 1.005 0 0 0-.645-.238.976.976 0 0 0-.637.238.886.886 0 0 0-.22.304 1.01 1.01 0 0 0-.082.42v2.079c-.004.146.024.292.082.426a.838.838 0 0 0 .22.291c.087.08.188.143.299.183a.976.976 0 0 0 .982-.183.893.893 0 0 0 .296-.717v-2.079a1.01 1.01 0 0 0-.082-.42.927.927 0 0 0-.214-.304zm-.265 2.803a.377.377 0 0 1-.112.301.414.414 0 0 1-.534 0 .38.38 0 0 1-.112-.301v-2.079a.377.377 0 0 1 .112-.301.414.414 0 0 1 .534 0 .38.38 0 0 1 .112.301v2.079zM28.21 29.543v-3.936h-.545l-.716 2.084h-.01l-.721-2.084h-.539v3.936h.562v-2.395h.01l.551 1.693h.28l.555-1.693h.01v2.395h.562zM31.405 25.882a.785.785 0 0 0-.318-.215 1.254 1.254 0 0 0-.408-.061h-.835v3.936h.561v-1.537h.289c.175.008.349-.029.506-.108a.817.817 0 0 0 .308-.301.94.94 0 0 0 .129-.343c.022-.148.032-.298.03-.448a2.212 2.212 0 0 0-.055-.562.828.828 0 0 0-.207-.362zm-.289 1.2a.49.49 0 0 1-.052.205.313.313 0 0 1-.145.138.574.574 0 0 1-.265.049h-.256v-1.338h.289a.55.55 0 0 1 .253.049.32.32 0 0 1 .132.145.572.572 0 0 1 .049.219v.262c0 .092.006.186 0 .27h-.006zM34.062 25.606h-.46l-.867 3.936h.561l.165-.846h.765l.165.846h.561l-.889-3.936zm-.518 2.555.276-1.427h.01l.275 1.427h-.561zM37.686 27.978h-.01l-.847-2.371h-.539v3.936h.561v-2.367h.012l.857 2.367h.528v-3.936h-.561v2.371zM41.113 25.606l-.451 1.565h-.012l-.451-1.565h-.594l.77 2.273v1.664h.561v-1.664l.77-2.273h-.594zM18.857 30.654h.27v.759h.184v-.759h.269v-.155h-.723v.155zM21.13 30.498l-.354.914h.195l.075-.208h.364l.078.208h.2l-.363-.914h-.195zm-.029.553.124-.339.124.339H21.1zM23.376 31.076h.211v.118a.357.357 0 0 1-.217.077.23.23 0 0 1-.193-.087.39.39 0 0 1-.068-.238c0-.203.088-.305.263-.305a.194.194 0 0 1 .207.145l.181-.035c-.039-.179-.168-.269-.387-.269a.458.458 0 0 0-.319.118.457.457 0 0 0-.131.351.498.498 0 0 0 .117.343.446.446 0 0 0 .347.134.548.548 0 0 0 .387-.145v-.36h-.396v.154zM25.67 30.498h-.185v.914h.64v-.155h-.455v-.759zM27.61 30.498h-.185v.914h.185v-.914zM29.507 31.109l-.374-.61h-.179v.914h.172v-.597l.367.597h.184v-.914h-.169v.61zM31.221 31.01h.455v-.155h-.455v-.201h.49v-.155h-.675v.914h.694v-.155h-.509v-.247zM35.378 30.859h-.36v-.36h-.184v.914h.184v-.4h.36v.4h.184v-.914h-.184v.36zM37.103 31.01h.457v-.155h-.457v-.201h.492v-.155h-.675v.914h.692v-.155h-.509v-.247zM39.442 31.01c.159-.025.24-.109.24-.254a.213.213 0 0 0-.09-.203.516.516 0 0 0-.267-.054h-.387v.914h.184v-.382h.036a.262.262 0 0 1 .114.02c.027.017.049.04.065.067l.2.291h.22l-.111-.179a.642.642 0 0 0-.202-.219zm-.185-.126h-.136v-.23h.145a.476.476 0 0 1 .187.022.117.117 0 0 1 .04.095c-.001.018-.006.035-.014.051s-.02.029-.035.04a.536.536 0 0 1-.187.022zM41.206 31.01h.455v-.155h-.455v-.201h.492v-.155h-.676v.914h.694v-.155h-.509v-.247z"/>
    </symbol>
    <symbol id="icon-castomers3" viewBox="0 0 59 32">
      <path d="M21.034 28.128c.009 0 .018.002.027.005s.016.008.022.014l.126.119a1.034 1.034 0 0 1-.355.225 1.4 1.4 0 0 1-.503.081 1.348 1.348 0 0 1-.473-.076 1.044 1.044 0 0 1-.357-.213.935.935 0 0 1-.23-.329 1.08 1.08 0 0 1-.08-.422 1.006 1.006 0 0 1 .087-.423.99.99 0 0 1 .244-.329 1.14 1.14 0 0 1 .379-.214c.155-.051.321-.077.487-.076.155-.003.309.02.453.069.125.046.24.111.339.19l-.106.127a.087.087 0 0 1-.027.023.07.07 0 0 1-.043.009.107.107 0 0 1-.046-.014l-.057-.034-.079-.043a.9.9 0 0 0-.25-.076 1.181 1.181 0 0 0-.538.043.73.73 0 0 0-.452.412.857.857 0 0 0-.065.334c-.002.116.02.23.065.34a.73.73 0 0 0 .437.408.96.96 0 0 0 .325.054c.064.001.129-.003.192-.011a.784.784 0 0 0 .417-.174.105.105 0 0 1 .06-.022zM24.678 27.532c.002.143-.027.285-.085.419-.051.122-.132.233-.238.326s-.232.166-.373.214c-.309.101-.65.101-.959 0a1.127 1.127 0 0 1-.371-.214.956.956 0 0 1-.24-.329 1.074 1.074 0 0 1 0-.84.982.982 0 0 1 .24-.33c.106-.09.232-.16.371-.206.308-.102.651-.102.959 0 .14.049.267.122.372.214a.958.958 0 0 1 .323.747zm-.331 0a.892.892 0 0 0-.06-.337.687.687 0 0 0-.436-.411 1.122 1.122 0 0 0-.697 0 .747.747 0 0 0-.267.159.678.678 0 0 0-.17.252.976.976 0 0 0 0 .674.703.703 0 0 0 .437.41c.225.072.472.072.697 0a.7.7 0 0 0 .436-.41.873.873 0 0 0 .06-.337zM27.164 27.885l.033.076.036-.076a.768.768 0 0 1 .041-.074l.806-1.252c.016-.022.03-.035.046-.039a.21.21 0 0 1 .066-.007h.238v2.036h-.282v-1.56a.41.41 0 0 1 0-.07l-.811 1.269c-.01.019-.027.035-.047.046s-.045.017-.069.017h-.046c-.025 0-.049-.006-.069-.017s-.037-.027-.047-.047l-.834-1.277V28.545h-.273v-2.032h.238a.21.21 0 0 1 .066.007c.02.008.035.022.044.039l.823 1.253c.016.023.03.047.041.073zM30.197 27.784v.763h-.316v-2.034h.704a1.57 1.57 0 0 1 .393.044.793.793 0 0 1 .278.127.53.53 0 0 1 .158.199.619.619 0 0 1 .054.26.56.56 0 0 1-.228.463.822.822 0 0 1-.279.135 1.347 1.347 0 0 1-.38.047l-.382-.005zm0-.218h.382a.907.907 0 0 0 .244-.031.554.554 0 0 0 .177-.088.38.38 0 0 0 .145-.306c.004-.057-.007-.113-.032-.166s-.062-.1-.11-.139a.69.69 0 0 0-.424-.109h-.382v.838zM34.437 28.549h-.249a.116.116 0 0 1-.11-.066l-.215-.492h-1.077l-.222.492a.115.115 0 0 1-.11.066h-.249l.946-2.036h.328l.959 2.036zm-1.562-.756h.89l-.375-.829a1.33 1.33 0 0 1-.071-.191l-.036.106a.95.95 0 0 1-.035.086l-.372.828zM35.8 26.522a.131.131 0 0 1 .047.036l1.38 1.535v-1.58h.282v2.036h-.158a.16.16 0 0 1-.065-.012.161.161 0 0 1-.05-.038l-1.379-1.534a.41.41 0 0 1 0 .07v1.514h-.282v-2.036h.167a.18.18 0 0 1 .057.009zM39.834 27.739v.809h-.316v-.809l-.872-1.226h.282a.116.116 0 0 1 .068.018.187.187 0 0 1 .043.046l.546.791c.022.034.041.065.057.094s.028.058.039.086l.041-.088a.624.624 0 0 1 .054-.093l.538-.797a.208.208 0 0 1 .041-.043.107.107 0 0 1 .068-.02h.285l-.874 1.232zM27.008 23.095c.137.015.276.027.416.038 2.128-.813 3.929-2.145 5.176-3.828s1.887-3.643 1.838-5.634l-2.346-2.004c.477 2.12.254 4.313-.644 6.331s-2.436 3.783-4.441 5.098z"/>
      <path d="m26.17 23.002.063.011c2.143-1.31 3.776-3.138 4.69-5.25s1.064-4.408.433-6.594l-3.341-2.854c1.351 2.346 1.895 4.972 1.568 7.572s-1.511 5.067-3.414 7.115zM37.5 16.024c-.568 2.188-1.946 4.162-3.931 5.628-.58.43-1.205.814-1.868 1.145 1.616-.406 3.102-1.123 4.342-2.097s2.202-2.178 2.812-3.52L37.5 16.024z"/>
      <path d="m36.968 15.702-1.929-1.648c-.037 1.879-.662 3.716-1.811 5.318s-2.779 2.914-4.721 3.796h.009c.433 0 .865-.022 1.295-.066 1.815-.633 3.418-1.64 4.667-2.931s2.104-2.826 2.489-4.469zM26.449 7.112l-2.301-1.969c-2.057.679-3.827 1.873-5.077 3.426s-1.922 3.392-1.928 5.276c.008 2.082.828 4.103 2.331 5.742s3.603 2.803 5.967 3.308c2.111-2.197 3.346-4.912 3.528-7.75s-.701-5.652-2.52-8.032zM42.286 15.399c-.008-2.47-1.161-4.838-3.205-6.585s-4.815-2.731-7.707-2.739a12.47 12.47 0 0 0-3.907.621l14.09 12.039a8.056 8.056 0 0 0 .729-3.337z"/>
    </symbol>
    <symbol id="icon-castomers4" viewBox="0 0 66 32">
<path d="M10.207 9.77h-0.002c-1.861 0-3.372 1.361-3.372 3.039v0.002c0 1.678 1.51 3.039 3.372 3.039h0.002c1.862 0 3.372-1.36 3.372-3.039v-0.002c0-1.678-1.509-3.039-3.372-3.039zM35.092 8.798c-0.005-2.331-1.034-4.566-2.863-6.216-1.829-1.648-4.307-2.577-6.894-2.583-2.587 0.004-5.066 0.933-6.896 2.582s-2.86 3.885-2.865 6.217v12.858s19.515-1.959 19.517-12.855v-0.002zM0 25.876c0.005 1.623 0.721 3.177 1.993 4.325s2.997 1.794 4.796 1.799c1.799-0.005 3.523-0.651 4.795-1.798s1.989-2.701 1.994-4.324v-8.945s-13.579 1.363-13.579 8.944zM6.789 27.479c-0.351 0-0.695-0.094-0.988-0.27-0.285-0.17-0.51-0.416-0.651-0.71l-0.004-0.010c-0.085-0.18-0.135-0.391-0.135-0.613 0-0.111 0.012-0.218 0.036-0.322l-0.002 0.010c0.077-0.329 0.249-0.61 0.485-0.82l0.002-0.001c0.247-0.22 0.557-0.376 0.9-0.437l0.011-0.002c0.344-0.062 0.702-0.030 1.027 0.091s0.603 0.326 0.798 0.59 0.3 0.574 0.3 0.891c0.001 0.211-0.044 0.421-0.133 0.616s-0.22 0.372-0.385 0.522c-0.163 0.147-0.355 0.265-0.565 0.345l-0.012 0.004c-0.202 0.078-0.436 0.123-0.68 0.123-0.001 0-0.002 0-0.002 0h0v-0.006zM19.207 24.597v3.33h-0.686v-3.33h0.686zM20.534 26.019v0.535h-1.514v-0.535h1.514zM20.693 24.597v0.537h-1.673v-0.537h1.673zM23.826 26.184v0.158c0 0.254-0.034 0.481-0.103 0.681-0.066 0.199-0.165 0.37-0.292 0.517l0.002-0.002c-0.125 0.14-0.275 0.247-0.448 0.322-0.163 0.071-0.354 0.112-0.554 0.112-0.007 0-0.014-0-0.022-0h0.001c-0.208 0-0.4-0.037-0.574-0.112-0.176-0.077-0.326-0.186-0.447-0.321l-0.001-0.001c-0.127-0.145-0.228-0.316-0.292-0.505l-0.003-0.011c-0.065-0.194-0.103-0.418-0.103-0.651 0-0.011 0-0.021 0-0.032l-0 0.002v-0.158c0-0.254 0.034-0.482 0.103-0.681 0.066-0.198 0.165-0.37 0.292-0.516l-0.002 0.002c0.126-0.142 0.276-0.25 0.448-0.325 0.174-0.075 0.365-0.112 0.574-0.112 0.211 0 0.402 0.037 0.574 0.112 0.174 0.075 0.323 0.183 0.448 0.325 0.126 0.142 0.224 0.313 0.293 0.515 0.070 0.199 0.105 0.426 0.105 0.681zM23.133 26.341v-0.162c0-0.176-0.016-0.332-0.048-0.466-0.029-0.128-0.078-0.242-0.144-0.342l0.002 0.004c-0.058-0.087-0.135-0.157-0.225-0.204l-0.003-0.002c-0.086-0.044-0.188-0.070-0.295-0.070-0.005 0-0.010 0-0.015 0h0.001c-0.116 0-0.219 0.023-0.308 0.070-0.093 0.050-0.169 0.12-0.225 0.204l-0.001 0.002c-0.063 0.097-0.111 0.21-0.138 0.332l-0.001 0.007c-0.030 0.131-0.048 0.282-0.048 0.437 0 0.010 0 0.020 0 0.031l-0-0.002v0.162c0 0.176 0.016 0.331 0.048 0.467 0.032 0.134 0.080 0.247 0.142 0.341 0.062 0.091 0.139 0.161 0.229 0.208s0.193 0.071 0.308 0.071c0.116 0 0.219-0.023 0.309-0.070 0.093-0.050 0.169-0.121 0.225-0.206l0.001-0.002c0.061-0.094 0.108-0.207 0.14-0.341 0.030-0.132 0.048-0.283 0.048-0.439 0-0.010-0-0.020-0-0.029l0 0.002zM26.053 27.055c0-0.002 0-0.005 0-0.007 0-0.055-0.010-0.107-0.028-0.156l0.001 0.003c-0.020-0.054-0.053-0.098-0.095-0.132l-0.001-0c-0.057-0.047-0.123-0.088-0.194-0.119l-0.005-0.002c-0.089-0.041-0.199-0.083-0.312-0.118l-0.020-0.005c-0.175-0.057-0.317-0.112-0.456-0.175l0.026 0.011c-0.136-0.061-0.253-0.132-0.361-0.215l0.004 0.003c-0.098-0.078-0.179-0.174-0.239-0.282l-0.003-0.005c-0.055-0.105-0.088-0.229-0.088-0.361 0-0.006 0-0.011 0-0.017v0.001c-0-0.003-0-0.007-0-0.011 0-0.134 0.034-0.26 0.093-0.371l-0.002 0.004c0.061-0.115 0.147-0.212 0.256-0.293 0.109-0.083 0.24-0.146 0.389-0.19 0.151-0.044 0.316-0.066 0.496-0.066 0.245 0 0.46 0.044 0.642 0.133s0.325 0.21 0.425 0.364c0.101 0.154 0.153 0.33 0.153 0.528h-0.681c0-0.003 0-0.008 0-0.012 0-0.090-0.023-0.174-0.063-0.247l0.001 0.003c-0.042-0.076-0.104-0.137-0.18-0.175l-0.002-0.001c-0.083-0.041-0.18-0.064-0.283-0.064-0.009 0-0.017 0-0.025 0l0.001-0c-0.007-0-0.015-0-0.023-0-0.099 0-0.193 0.020-0.278 0.057l0.005-0.002c-0.074 0.030-0.135 0.080-0.179 0.143l-0.001 0.001c-0.037 0.055-0.059 0.122-0.059 0.195 0 0.002 0 0.004 0 0.007v-0c0 0.056 0.013 0.108 0.041 0.153 0.035 0.051 0.077 0.094 0.127 0.127l0.002 0.001c0.056 0.040 0.125 0.077 0.208 0.112s0.178 0.069 0.286 0.103c0.182 0.055 0.341 0.116 0.478 0.185s0.254 0.145 0.347 0.231c0.094 0.086 0.163 0.182 0.211 0.29s0.070 0.231 0.070 0.368c0 0.010 0.001 0.021 0.001 0.032 0 0.265-0.129 0.5-0.328 0.645l-0.002 0.002c-0.106 0.079-0.234 0.139-0.382 0.18s-0.313 0.062-0.496 0.062c-0.164 0-0.327-0.022-0.487-0.065-0.166-0.046-0.312-0.114-0.442-0.202l0.005 0.003c-0.128-0.088-0.233-0.201-0.308-0.333l-0.003-0.005c-0.078-0.137-0.116-0.3-0.116-0.487h0.688c0 0.104 0.016 0.191 0.048 0.263 0.031 0.070 0.077 0.128 0.134 0.173l0.001 0.001c0.060 0.044 0.13 0.077 0.207 0.095l0.004 0.001c0.082 0.020 0.172 0.030 0.269 0.030 0.008 0 0.017 0 0.026 0 0.096 0 0.188-0.018 0.272-0.052l-0.005 0.002c0.135-0.054 0.229-0.184 0.229-0.336 0-0.002 0-0.003-0-0.005v0zM28.694 24.597v3.33h-0.684v-3.33h0.684zM29.719 24.597v0.537h-2.716v-0.537h2.716zM32.343 27.391v0.535h-1.772v-0.535h1.772zM30.796 24.597v3.33h-0.687v-3.33h0.687zM32.112 25.953v0.521h-1.541v-0.521h1.541zM32.341 24.597v0.537h-1.77v-0.537h1.77zM32.744 24.597h1.241c0.255 0 0.474 0.038 0.656 0.114 0.185 0.076 0.326 0.19 0.425 0.339s0.148 0.333 0.148 0.551c0 0.179-0.030 0.332-0.091 0.46-0.060 0.128-0.146 0.234-0.252 0.316l-0.002 0.001c-0.109 0.084-0.236 0.152-0.372 0.199l-0.009 0.003-0.217 0.115h-1.079l-0.005-0.535h0.802c0.007 0 0.015 0 0.023 0 0.101 0 0.196-0.024 0.281-0.066l-0.004 0.002c0.077-0.041 0.138-0.102 0.178-0.176l0.001-0.002c0.039-0.073 0.062-0.161 0.062-0.253 0-0.004-0-0.009-0-0.013v0.001c0-0.004 0-0.010 0-0.015 0-0.095-0.022-0.185-0.061-0.265l0.002 0.004c-0.040-0.078-0.103-0.139-0.179-0.177l-0.002-0.001c-0.083-0.040-0.18-0.063-0.283-0.063-0.008 0-0.015 0-0.023 0l0.001-0h-0.556v2.793h-0.685v-3.33zM34.605 27.927l-0.759-1.485 0.724-0.005 0.769 1.457v0.031h-0.734zM38.206 26.74h-0.848v-0.535h0.848c0.008 0 0.018 0.001 0.027 0.001 0.106 0 0.207-0.024 0.297-0.066l-0.004 0.002c0.078-0.041 0.141-0.104 0.179-0.181l0.001-0.002c0.036-0.079 0.057-0.172 0.057-0.27s-0.021-0.19-0.058-0.274l0.002 0.004c-0.039-0.087-0.101-0.157-0.178-0.205l-0.002-0.001c-0.085-0.049-0.186-0.079-0.295-0.079-0.009 0-0.018 0-0.026 0.001l0.001-0h-0.611v2.793h-0.685v-3.33h1.296c0.261 0 0.484 0.047 0.671 0.142 0.187 0.093 0.33 0.222 0.429 0.386s0.148 0.353 0.148 0.564c0 0.215-0.049 0.401-0.148 0.558s-0.242 0.279-0.429 0.364c-0.187 0.086-0.41 0.128-0.671 0.128zM42.162 27.391v0.535h-1.772v-0.535h1.772zM40.614 24.597v3.33h-0.687v-3.33h0.687zM41.931 25.953v0.521h-1.541v-0.521h1.541zM42.16 24.597v0.537h-1.769v-0.537h1.77zM44.096 24.597v3.33h-0.683v-3.33h0.684zM45.121 24.597v0.537h-2.716v-0.537h2.716zM47.746 27.391v0.535h-1.772v-0.535h1.772zM46.198 24.597v3.33h-0.686v-3.33h0.686zM47.515 25.953v0.521h-1.541v-0.521h1.541zM47.743 24.597v0.537h-1.769v-0.537h1.769zM48.146 24.597h1.241c0.255 0 0.474 0.038 0.657 0.114s0.326 0.19 0.425 0.339c0.098 0.149 0.148 0.333 0.148 0.551 0 0.179-0.031 0.332-0.091 0.46s-0.146 0.234-0.252 0.316l-0.002 0.001c-0.109 0.084-0.236 0.152-0.373 0.199l-0.009 0.003-0.217 0.115h-1.079l-0.005-0.535h0.803c0.007 0 0.014 0 0.022 0 0.101 0 0.196-0.024 0.281-0.066l-0.004 0.002c0.077-0.041 0.138-0.102 0.178-0.176l0.001-0.002c0.039-0.074 0.063-0.162 0.063-0.255 0-0.004-0-0.008-0-0.011v0.001c0-0.004 0-0.009 0-0.014 0-0.096-0.022-0.186-0.062-0.266l0.002 0.004c-0.040-0.078-0.103-0.139-0.179-0.177l-0.002-0.001c-0.083-0.040-0.18-0.063-0.283-0.063-0.008 0-0.015 0-0.023 0l0.001-0h-0.555v2.793h-0.686v-3.33zM50.007 27.927l-0.759-1.485 0.725-0.005 0.768 1.457v0.031h-0.734zM52.88 27.055c0-0.002 0-0.003 0-0.005 0-0.056-0.010-0.109-0.029-0.158l0.001 0.003c-0.020-0.054-0.053-0.098-0.095-0.132l-0.001-0c-0.057-0.047-0.123-0.088-0.194-0.119l-0.005-0.002c-0.089-0.041-0.198-0.083-0.311-0.118l-0.020-0.005c-0.176-0.056-0.318-0.112-0.456-0.175l0.026 0.011c-0.136-0.061-0.253-0.132-0.361-0.215l0.004 0.003c-0.098-0.078-0.179-0.174-0.239-0.282l-0.002-0.005c-0.055-0.105-0.088-0.229-0.088-0.361 0-0.006 0-0.011 0-0.017v0.001c-0-0.003-0-0.007-0-0.011 0-0.134 0.034-0.26 0.093-0.371l-0.002 0.004c0.061-0.115 0.147-0.212 0.256-0.293 0.109-0.083 0.24-0.146 0.389-0.19 0.151-0.044 0.316-0.066 0.496-0.066 0.245 0 0.46 0.044 0.642 0.133s0.325 0.21 0.425 0.364c0.102 0.154 0.153 0.33 0.153 0.528h-0.681c0-0.003 0-0.008 0-0.012 0-0.090-0.023-0.174-0.063-0.247l0.001 0.003c-0.042-0.076-0.104-0.137-0.18-0.175l-0.002-0.001c-0.083-0.041-0.18-0.064-0.283-0.064-0.008 0-0.017 0-0.025 0l0.001-0c-0.007-0-0.015-0-0.023-0-0.099 0-0.193 0.020-0.278 0.057l0.005-0.002c-0.074 0.030-0.135 0.080-0.178 0.143l-0.001 0.001c-0.037 0.055-0.059 0.123-0.059 0.196 0 0.002 0 0.004 0 0.005v-0c0 0.056 0.013 0.108 0.041 0.153 0.035 0.051 0.077 0.094 0.127 0.127l0.002 0.001c0.056 0.040 0.125 0.077 0.208 0.112s0.178 0.069 0.286 0.103c0.182 0.055 0.341 0.116 0.478 0.185s0.254 0.145 0.347 0.231c0.094 0.086 0.163 0.182 0.211 0.29s0.070 0.231 0.070 0.368c0 0.010 0.001 0.021 0.001 0.032 0 0.265-0.129 0.5-0.328 0.645l-0.002 0.002c-0.106 0.079-0.234 0.139-0.382 0.18s-0.313 0.062-0.496 0.062c-0.165 0-0.328-0.022-0.487-0.065-0.166-0.046-0.312-0.114-0.442-0.202l0.005 0.003c-0.129-0.088-0.233-0.201-0.309-0.333l-0.003-0.005c-0.078-0.137-0.116-0.3-0.116-0.487h0.688c0 0.104 0.016 0.191 0.048 0.263 0.031 0.070 0.077 0.128 0.134 0.173l0.001 0.001c0.060 0.044 0.13 0.077 0.207 0.095l0.004 0.001c0.082 0.020 0.172 0.030 0.27 0.030 0.007 0 0.016 0 0.025 0 0.096 0 0.188-0.018 0.272-0.052l-0.005 0.002c0.135-0.054 0.229-0.184 0.229-0.336 0-0.002 0-0.003-0-0.005v0z"></path>
</symbol>
 <symbol id="icon-castomers5" viewBox="0 0 59 32">
      <path d="M15.31 25.356c.14.157.215.352.211.553.007.131-.019.262-.075.383s-.143.229-.252.315a1.516 1.516 0 0 1-.956.254h.005-1.671v-3.504h1.637a1.51 1.51 0 0 1 .913.236l-.006-.004c.106.08.19.181.245.294s.08.238.073.362a.756.756 0 0 1-.19.535.91.91 0 0 1-.493.273l-.006.001a.985.985 0 0 1 .565.299zm-1.961-.529h.7a.712.712 0 0 0 .445-.116.415.415 0 0 0 .119-.153l.001-.003a.376.376 0 0 0 .03-.189v.002l.001-.029a.388.388 0 0 0-.034-.159l.001.003a.431.431 0 0 0-.116-.156h-.001a.726.726 0 0 0-.461-.118h.003-.689v.919zm1.213 1.344a.437.437 0 0 0 .128-.158l.001-.003a.384.384 0 0 0 .037-.168l-.001-.028v.001l.001-.025a.395.395 0 0 0-.04-.175l.001.002a.458.458 0 0 0-.13-.161l-.001-.001a.777.777 0 0 0-.429-.128c-.016 0-.033 0-.049.002h.002-.734v.964h.743a.794.794 0 0 0 .47-.122zm4.095.692-.911-1.37h-.343v1.369h-.783v-3.504h1.483a1.569 1.569 0 0 1 1.037.3l-.004-.003c.207.19.333.441.353.707s-.066.529-.242.743a1.246 1.246 0 0 1-.707.357l.97 1.4h-.851zm-1.254-1.848h.641c.445 0 .667-.177.667-.531l.001-.029a.488.488 0 0 0-.038-.187l.001.003a.51.51 0 0 0-.127-.181.741.741 0 0 0-.506-.141h.003-.649l.008 1.066zm5.536 1.142h-1.562l-.275.705h-.822l1.434-3.465h.888l1.428 3.465h-.822l-.27-.705zm-.21-.53-.57-1.479-.57 1.479h1.141zm5.57 1.236h-.777l-1.744-2.383v2.383h-.776v-3.505h.776l1.743 2.397v-2.397h.778v3.504zm4.438-.84c-.169.27-.409.482-.693.614l-.01.004a2.5 2.5 0 0 1-1.093.221h-1.385v-3.504h1.385l.064-.001c.372 0 .726.08 1.045.223l-.016-.006c.298.135.543.349.703.611a1.867 1.867 0 0 1-.005 1.847l.005-.009zm-.89-.083c.211-.216.341-.511.344-.836a1.207 1.207 0 0 0-.344-.836 1.438 1.438 0 0 0-.978-.298h.004-.54v2.269h.54a1.443 1.443 0 0 0 .977-.3l-.003.002zM23.426 3.867s10.038 3.411 9.825 8.349v8.351s-10.031-3.414-9.822-8.351l-.003-8.349zm18.768 14.744a14.707 14.707 0 0 1 6.378-2.116v-2.614c-2.638.915-4.875 2.574-6.378 4.73z"/>
      <path d="M41.055 19.399c1.551-2.813 4.242-4.983 7.517-6.065V5.801s-14.296 4.86-13.994 11.891v11.889s.637-.217 1.639-.625c0-.38 0-.763.046-1.149.295-3.264 2.019-6.289 4.792-8.409z"/>
      <path d="M39.695 23.815c.075-.825.243-1.64.501-2.434-1.727 1.831-2.772 4.103-2.99 6.497-.021.226-.032.451-.038.685a40.123 40.123 0 0 0 2.987-1.418l-.237.114a11.185 11.185 0 0 1-.219-3.487l-.003.044zm.568.043a10.638 10.638 0 0 0 .189 3.186l-.012-.07c3.906-2.104 8.294-5.354 8.125-9.283v-.343c-2.79.282-5.401 1.38-7.431 3.126a10.503 10.503 0 0 0-.868 3.341l-.003.042z"/>
    </symbol>   
    <symbol id="icon-castomers6" viewBox="0 0 59 32">
      <path d="M30.589 15.682a1.673 1.673 0 0 1-.346-1.143v.005-1.65c0-.506.115-.89.345-1.153s.624-.394 1.183-.393c.526 0 .898.112 1.119.336.24.286.357.635.33.987v.389h-.939v-.393a2.072 2.072 0 0 0-.027-.385.372.372 0 0 0-.133-.228l-.001-.001a.541.541 0 0 0-.343-.088h.002l-.041-.001a.572.572 0 0 0-.319.097l.002-.001a.443.443 0 0 0-.155.248l-.001.003a1.844 1.844 0 0 0-.037.376v.034-.002 2.003a1.022 1.022 0 0 0 .123.567l-.003-.005a.46.46 0 0 0 .184.136l.003.001c.076.029.16.04.243.031.12.009.24-.024.333-.091a.407.407 0 0 0 .14-.241v-.002a2.16 2.16 0 0 0 .029-.401v-.406h.94v.371a1.502 1.502 0 0 1-.328 1.04l.002-.003c-.216.245-.584.367-1.125.367s-.949-.131-1.181-.403zm3.912.017c-.237-.257-.356-.631-.356-1.127v-1.736c0-.49.119-.861.356-1.113s.634-.377 1.191-.376c.553 0 .947.126 1.185.376.238.252.358.623.358 1.113v1.736c0 .49-.121.866-.362 1.125s-.634.387-1.181.387-.951-.131-1.191-.386zm1.628-.417a.968.968 0 0 0 .113-.514v-2.126a.942.942 0 0 0-.113-.508l.002.005a.452.452 0 0 0-.188-.138L35.94 12a.52.52 0 0 0-.251-.03h.003a.521.521 0 0 0-.253.031l.004-.001a.45.45 0 0 0-.193.137l-.001.001a.921.921 0 0 0-.113.503v2.136a.95.95 0 0 0 .113.514.65.65 0 0 0 .685.126l-.004.002a.606.606 0 0 0 .198-.127v-.01zm2.236-3.884h1.011l.761 3.203.778-3.203h.985l.099 4.623h-.727l-.078-3.213-.751 3.213h-.583l-.778-3.225-.072 3.225h-.735l.091-4.623zm4.768 0h1.576c.907 0 1.362.438 1.362 1.313 0 .838-.478 1.257-1.434 1.256H44.1v2.055h-.973l.006-4.623zm1.346 1.976a.765.765 0 0 0 .535-.146.744.744 0 0 0 .139-.525v.003l.001-.053c0-.13-.017-.257-.05-.377l.002.01a.345.345 0 0 0-.072-.127.405.405 0 0 0-.121-.092l-.002-.001a1 1 0 0 0-.382-.075l-.055.002h.003-.377v1.382h.377zm2.995-1.976h1.045l1.072 4.623h-.907l-.211-1.066h-.932l-.218 1.066h-.92l1.072-4.623zm.893 3.021-.364-1.941-.364 1.941h.727zm2.089-3.021h.681l1.303 2.637v-2.637h.808v4.623H52.6l-1.311-2.753v2.753h-.834l.002-4.623zm4.683 2.86-1.083-2.854h.913l.661 1.833.621-1.833h.893l-1.07 2.854v1.762h-.934v-1.762zM32.09 18.042v.242h-.794v1.878h-.332v-1.878h-.798v-.242h1.924zm2.488 2.12h-.264a.119.119 0 0 1-.065-.02.117.117 0 0 1-.043-.048v-.001l-.23-.503h-1.101l-.229.503a.144.144 0 0 1-.035.057.114.114 0 0 1-.066.02h-.263l.973-2.12h.339l.984 2.111zm-1.611-.787h.918l-.389-.863a1.417 1.417 0 0 1-.07-.189l-.003-.011-.037.113-.035.089-.385.861zm3.288.579c.061.003.122.003.183 0a1.38 1.38 0 0 0 .296-.063c.043-.015.086-.034.13-.053v-.477h-.394a.06.06 0 0 1-.024-.004h.001a.092.092 0 0 1-.024-.013.061.061 0 0 1-.015-.017.041.041 0 0 1-.005-.019v-.165h.755v.813a1.45 1.45 0 0 1-.4.171l-.01.002c-.08.02-.161.034-.243.043a2.768 2.768 0 0 1-.284.014h-.011c-.172 0-.336-.029-.489-.083l.01.003a1.194 1.194 0 0 1-.391-.223l.002.001a1.035 1.035 0 0 1-.249-.33l-.003-.006a1.05 1.05 0 0 1-.089-.426v-.015.001-.013c0-.155.032-.303.09-.437l-.003.007a.982.982 0 0 1 .251-.336 1.19 1.19 0 0 1 .389-.22 1.64 1.64 0 0 1 .522-.079c.091 0 .181.006.27.018a1.273 1.273 0 0 1 .595.249l-.093.131a.079.079 0 0 1-.032.028.093.093 0 0 1-.044.011.139.139 0 0 1-.061-.017h.001a1.278 1.278 0 0 1-.1-.053l.005.003a.798.798 0 0 0-.125-.055l-.006-.002a1.208 1.208 0 0 0-.171-.046l-.008-.001a1.417 1.417 0 0 0-.234-.018h-.014.001-.012c-.13 0-.255.022-.372.061l.008-.002a.81.81 0 0 0-.286.169l.001-.001a.742.742 0 0 0-.182.263.982.982 0 0 0 .003.714l-.002-.007c.043.099.109.19.195.267.08.073.177.13.284.168.124.037.255.051.385.042zm3.102-.033h1.063v.242h-1.387v-2.12h.333l-.008 1.878zm2.167.241h-.333v-2.12h.333v2.12zm1.238-2.11a.16.16 0 0 1 .05.039l1.422 1.598-.001-.038.002-.039v.002-1.58h.29v2.129H44.347a.16.16 0 0 1-.062-.013h.001a.19.19 0 0 1-.052-.04l-1.42-1.597v1.649h-.278v-2.121h.173c.019 0 .038.003.055.01zm4.212-.01v.233h-1.179v.7h.955v.225h-.955v.723h1.179v.233h-1.522v-2.115h1.522zM12.111 4.948l14.773 3.619V21.25l-14.773-3.617V4.947zm-.947-1.081v14.382l16.666 4.085V7.954L11.164 3.868z"/>
      <path d="M20.096 29.01 3.429 24.922V10.541l16.667 4.086V29.01z"/>
      <path d="m11.44 4.785 14.58 3.574-6.2 5.352-14.582-3.576 6.202-5.35zm-.276-.918-7.735 6.674 16.667 4.086 7.734-6.674-16.666-4.086zm9.87 24.333 6.795-5.865-6.796-1.667v7.533z"/>
    </symbol>  
    <symbol id="icon-twitter" viewBox="0 0 32 32">
      <path d="M32 6.078c-1.19.522-2.458.868-3.78 1.036a6.523 6.523 0 0 0 2.886-3.626 13.11 13.11 0 0 1-4.16 1.588A6.574 6.574 0 0 0 22.154 3c-3.632 0-6.556 2.948-6.556 6.562 0 .52.044 1.02.152 1.496-5.454-.266-10.28-2.88-13.522-6.862a6.605 6.605 0 0 0-.898 3.316 6.57 6.57 0 0 0 2.914 5.452 6.479 6.479 0 0 1-2.964-.808v.072c0 3.188 2.274 5.836 5.256 6.446a6.548 6.548 0 0 1-1.72.216 5.8 5.8 0 0 1-1.242-.112c.85 2.598 3.262 4.508 6.13 4.57a13.182 13.182 0 0 1-8.134 2.798c-.538 0-1.054-.024-1.57-.09A18.469 18.469 0 0 0 10.064 29c12.072 0 18.672-10 18.672-18.668 0-.29-.01-.57-.024-.848A13.087 13.087 0 0 0 32 6.078z"/>
    </symbol>
    <symbol id="icon-Xclose" viewBox="0 0 32 32">
<path d="M32 3.224l-3.224-3.224-12.776 12.776-12.776-12.776-3.224 3.224 12.776 12.776-12.776 12.776 3.224 3.224 12.776-12.776 12.776 12.776 3.224-3.224-12.776-12.776 12.776-12.776z"></path>
</symbol>
<symbol id="icon-modalname" viewBox="0 0 32 32">
<path d="M16 16c2.946 0 5.333-2.388 5.333-5.333s-2.388-5.333-5.333-5.333v0c-2.946 0-5.333 2.388-5.333 5.333s2.388 5.333 5.333 5.333v0zM16 18.667c-3.561 0-10.667 1.787-10.667 5.333v1.333c0 0.732 0.599 1.333 1.333 1.333h18.667c0.732 0 1.333-0.601 1.333-1.333v-1.333c0-3.547-7.108-5.333-10.667-5.333z"></path>
</symbol>
<symbol id="icon-modalphone" viewBox="0 0 24 32">
<path d="M19.635 18.487l-2.451-0.28c-0.067-0.008-0.145-0.013-0.223-0.013-0.531 0-1.012 0.215-1.36 0.564l-1.775 1.775c-2.752-1.42-4.94-3.607-6.322-6.278l-0.038-0.081 1.787-1.785c0.347-0.347 0.562-0.827 0.562-1.358 0-0.079-0.005-0.156-0.014-0.233l0.001 0.009-0.28-2.432c-0.115-0.966-0.93-1.708-1.918-1.708-0.001 0-0.002 0-0.002 0h-1.669c-1.091 0-1.997 0.907-1.929 1.997 0.511 8.24 7.101 14.821 15.332 15.333 1.091 0.067 1.997-0.84 1.997-1.931v-1.669c0-0.003 0-0.007 0-0.011 0-0.981-0.739-1.789-1.69-1.899l-0.009-0.001z"></path>
</symbol>
<symbol id="icon-modalemail" viewBox="0 0 24 32">
<path d="M20 8h-16c-1.1 0-1.989 0.9-1.989 2l-0.011 12c0 1.1 0.9 2 2 2h16c1.1 0 2-0.9 2-2v-12c0-1.1-0.9-2-2-2zM19.6 12.251l-7.069 4.419c-0.151 0.094-0.334 0.15-0.531 0.15s-0.38-0.056-0.535-0.153l0.004 0.002-7.069-4.419c-0.252-0.15-0.418-0.422-0.418-0.731 0-0.469 0.38-0.849 0.849-0.849 0.174 0 0.337 0.053 0.471 0.143l6.697 4.187 6.7-4.191c0.132-0.088 0.294-0.141 0.468-0.141 0.469 0 0.849 0.38 0.849 0.849 0 0.31-0.166 0.581-0.414 0.729l-0.004 0.002z"></path>
</symbol>
<symbol id="icon-modalcheck" viewBox="0 0 32 32">
<path fill="#2e2f42" style="fill: var(--color1, #2e2f42)" d="M4 1h24c1.657 0 3 1.343 3 3v24c0 1.657-1.343 3-3 3h-24c-1.657 0-3-1.343-3-3v-24c0-1.657 1.343-3 3-3z"></path>
<path d="M22.892 8.51c0.329-0.319 0.779-0.515 1.274-0.515 1.003 0 1.819 0.806 1.834 1.805l0 0.001c0 0.014 0.001 0.031 0.001 0.047 0 0.482-0.184 0.922-0.486 1.252l0.001-0.001-9.788 12.308c-0.337 0.364-0.818 0.591-1.352 0.591-0.247 0-0.483-0.049-0.699-0.137l0.012 0.004c-0.239-0.099-0.442-0.237-0.612-0.408l-0-0-6.492-6.526c-0.362-0.339-0.588-0.819-0.588-1.352 0-0.251 0.050-0.49 0.14-0.708l-0.005 0.012c0.282-0.684 0.943-1.156 1.715-1.156 0.009 0 0.018 0 0.026 0h-0.001c0.519 0.010 0.984 0.234 1.311 0.587l0.001 0.001 5.138 5.164 8.52-10.916c0.016-0.020 0.032-0.037 0.050-0.054l-0.002-0z"></path>
<path stroke-linejoin="miter" stroke-linecap="butt" stroke-miterlimit="4" stroke-width="2" d="M4 1h24c1.657 0 3 1.343 3 3v24c0 1.657-1.343 3-3 3h-24c-1.657 0-3-1.343-3-3v-24c0-1.657 1.343-3 3-3z"></path>
</symbol>
<symbol id="icon-Vector" viewBox="0 0 40 32">
<path d="M33.784 1.020c0.659-0.637 1.558-1.030 2.548-1.030 2.007 0 3.637 1.611 3.668 3.611l0 0.003c0.001 0.028 0.001 0.061 0.001 0.095 0 0.965-0.368 1.844-0.972 2.504l0.003-0.003-19.576 24.616c-0.674 0.728-1.635 1.182-2.702 1.182-0.495 0-0.967-0.098-1.398-0.275l0.024 0.009c-0.477-0.197-0.884-0.473-1.224-0.816l-0-0-12.984-13.052c-0.724-0.677-1.175-1.638-1.175-2.705 0-0.501 0.1-0.98 0.28-1.416l-0.009 0.025c0.564-1.367 1.887-2.312 3.43-2.312 0.018 0 0.035 0 0.053 0l-0.003-0c1.038 0.019 1.967 0.467 2.622 1.174l0.002 0.002 10.276 10.328 17.040-21.832c0.032-0.039 0.065-0.074 0.1-0.108l-0.004-0z"></path>
</symbol>
<symbol id="icon-footersubscr" viewBox="0 0 32 32">
<path d="M32 2.667l-32 15 10.227 3.156 15.773-12.323-11.997 13.488 0.009 0.004-0.012-0.004v7.345l5.735-5.576 7.267 2.243 4.999-23.333z"></path>
</symbol>

  </defs>
</svg>
